<svg width="146" height="30" viewBox="0 0 146 30" fill="none" xmlns="http://www.w3.org/2000/svg">
<path d="M7.49951 14.999L0 0H7.49951L14.999 14.999H7.49951Z" fill="#C1DBF4"/>
<path d="M7.49951 14.999L0 22.4985H7.49951L14.999 14.999H7.49951Z" fill="#FF4274"/>
<path d="M16.5654 14.999L24.0669 30H16.5654L9.06592 14.999H16.5654Z" fill="#004C97"/>
<path d="M16.5654 14.999L24.0669 7.49951H16.5654L9.06592 14.999H16.5654Z" fill="#F7D3D5"/>
<path d="M36.4074 25.7958C34.905 25.7958 33.5587 25.4543 32.3685 24.7714C31.1978 24.069 30.271 23.1227 29.5881 21.9325C28.9052 20.7228 28.5637 19.3472 28.5637 17.8058C28.5637 16.2644 28.9052 14.8985 29.5881 13.7083C30.271 12.4986 31.1978 11.5523 32.3685 10.8694C33.5587 10.167 34.905 9.81577 36.4074 9.81577C37.8903 9.81577 39.2171 10.167 40.3878 10.8694C41.578 11.5523 42.5145 12.4986 43.1974 13.7083C43.8803 14.8985 44.2218 16.2644 44.2218 17.8058C44.2218 19.3472 43.8803 20.7228 43.1974 21.9325C42.5145 23.1227 41.578 24.069 40.3878 24.7714C39.2171 25.4543 37.8903 25.7958 36.4074 25.7958ZM36.4074 23.0446C37.3244 23.0446 38.1439 22.8203 38.8659 22.3715C39.5878 21.9032 40.1536 21.2788 40.5634 20.4984C40.9731 19.6984 41.1682 18.8009 41.1487 17.8058C41.1682 16.7912 40.9731 15.8936 40.5634 15.1132C40.1536 14.3132 39.5878 13.6888 38.8659 13.2401C38.1439 12.7913 37.3244 12.5669 36.4074 12.5669C35.4903 12.5669 34.6611 12.801 33.9197 13.2693C33.1977 13.7181 32.6319 14.3425 32.2221 15.1424C31.8124 15.9229 31.6173 16.8107 31.6368 17.8058C31.6173 18.8009 31.8124 19.6984 32.2221 20.4984C32.6319 21.2788 33.1977 21.9032 33.9197 22.3715C34.6611 22.8203 35.4903 23.0446 36.4074 23.0446Z" fill="#172C3D"/>
<path d="M47.5066 25.5031V10.1377H50.5211V13.2986L49.9943 13.6498C50.1894 12.9669 50.5699 12.3425 51.1358 11.7767C51.7016 11.1913 52.3747 10.7231 53.1552 10.3718C53.9357 10.0011 54.7356 9.81577 55.5551 9.81577C56.7258 9.81577 57.7014 10.0499 58.4819 10.5182C59.2623 10.967 59.8477 11.6596 60.2379 12.5962C60.6282 13.5327 60.8233 14.7132 60.8233 16.1375V25.5031H57.8087V16.3424C57.8087 15.4644 57.6917 14.7424 57.4575 14.1766C57.2234 13.5913 56.8624 13.1718 56.3746 12.9181C55.8868 12.645 55.282 12.5279 54.56 12.5669C53.9747 12.5669 53.4381 12.6645 52.9503 12.8596C52.4625 13.0352 52.0333 13.2888 51.6626 13.6205C51.3114 13.9522 51.0284 14.3425 50.8138 14.7912C50.6187 15.2205 50.5211 15.6888 50.5211 16.1961V25.5031H49.0285C48.7749 25.5031 48.5212 25.5031 48.2675 25.5031C48.0139 25.5031 47.7602 25.5031 47.5066 25.5031Z" fill="#172C3D"/>
<path d="M72.9905 25.7958C72.3271 25.7958 71.6637 25.6885 71.0003 25.4738C70.3564 25.2592 69.7613 24.9763 69.215 24.6251C68.6882 24.2544 68.2394 23.8544 67.8687 23.4251C67.5175 22.9763 67.2834 22.5276 67.1663 22.0788L67.9272 21.6691V25.4153H64.9127V3.84521H67.9272V13.6498L67.459 13.3864C67.5565 12.9376 67.7712 12.5084 68.1029 12.0986C68.4345 11.6694 68.854 11.2889 69.3613 10.9572C69.8882 10.606 70.454 10.3328 71.0589 10.1377C71.6637 9.92308 72.2783 9.81577 72.9027 9.81577C74.288 9.81577 75.5173 10.1572 76.5904 10.8401C77.6635 11.523 78.5123 12.4693 79.1367 13.6791C79.761 14.8693 80.0732 16.2351 80.0732 17.7765C80.0732 19.3179 79.761 20.6935 79.1367 21.9032C78.5318 23.1129 77.6928 24.069 76.6197 24.7714C75.5465 25.4543 74.3368 25.7958 72.9905 25.7958ZM72.493 23.0446C73.3905 23.0446 74.1905 22.8203 74.8929 22.3715C75.5953 21.9032 76.1514 21.2788 76.5611 20.4984C76.9709 19.6984 77.1757 18.7911 77.1757 17.7765C77.1757 16.7814 76.9709 15.8936 76.5611 15.1132C76.1709 14.3132 75.6246 13.6888 74.9222 13.2401C74.2197 12.7913 73.41 12.5669 72.493 12.5669C71.5759 12.5669 70.7662 12.7913 70.0638 13.2401C69.3614 13.6888 68.8053 14.3132 68.3955 15.1132C67.9858 15.8936 67.7809 16.7814 67.7809 17.7765C67.7809 18.7911 67.9858 19.6984 68.3955 20.4984C68.8053 21.2788 69.3614 21.9032 70.0638 22.3715C70.7662 22.8203 71.5759 23.0446 72.493 23.0446Z" fill="#172C3D"/>
<path d="M90.2548 25.7958C88.7525 25.7958 87.4062 25.4543 86.216 24.7714C85.0453 24.069 84.1185 23.1227 83.4355 21.9325C82.7526 20.7228 82.4112 19.3472 82.4112 17.8058C82.4112 16.2644 82.7526 14.8985 83.4355 13.7083C84.1185 12.4986 85.0453 11.5523 86.216 10.8694C87.4062 10.167 88.7525 9.81577 90.2548 9.81577C91.7377 9.81577 93.0645 10.167 94.2352 10.8694C95.4254 11.5523 96.362 12.4986 97.0449 13.7083C97.7278 14.8985 98.0693 16.2644 98.0693 17.8058C98.0693 19.3472 97.7278 20.7228 97.0449 21.9325C96.362 23.1227 95.4254 24.069 94.2352 24.7714C93.0645 25.4543 91.7377 25.7958 90.2548 25.7958ZM90.2548 23.0446C91.1719 23.0446 91.9914 22.8203 92.7133 22.3715C93.4352 21.9032 94.0011 21.2788 94.4108 20.4984C94.8206 19.6984 95.0157 18.8009 94.9962 17.8058C95.0157 16.7912 94.8206 15.8936 94.4108 15.1132C94.0011 14.3132 93.4352 13.6888 92.7133 13.2401C91.9914 12.7913 91.1719 12.5669 90.2548 12.5669C89.3378 12.5669 88.5086 12.801 87.7671 13.2693C87.0452 13.7181 86.4794 14.3425 86.0696 15.1424C85.6599 15.9229 85.4648 16.8107 85.4843 17.8058C85.4648 18.8009 85.6599 19.6984 86.0696 20.4984C86.4794 21.2788 87.0452 21.9032 87.7671 22.3715C88.5086 22.8203 89.3378 23.0446 90.2548 23.0446Z" fill="#172C3D"/>
<path d="M107.266 25.7958C105.998 25.7958 104.837 25.4446 103.783 24.7421C102.749 24.0397 101.92 23.0837 101.296 21.8739C100.671 20.6642 100.359 19.2984 100.359 17.7765C100.359 16.2351 100.671 14.8693 101.296 13.6791C101.939 12.4693 102.798 11.523 103.871 10.8401C104.964 10.1572 106.183 9.81577 107.529 9.81577C108.329 9.81577 109.061 9.93284 109.725 10.167C110.388 10.4011 110.964 10.7328 111.451 11.1621C111.959 11.5718 112.368 12.0498 112.681 12.5962C113.012 13.1425 113.217 13.7278 113.295 14.3522L112.622 14.1181V10.1377H115.666V25.5031H112.622V21.8447L113.324 21.6398C113.207 22.1666 112.963 22.6837 112.593 23.191C112.242 23.6788 111.783 24.1178 111.217 24.508C110.671 24.8982 110.056 25.2104 109.373 25.4446C108.71 25.6787 108.008 25.7958 107.266 25.7958ZM108.056 23.0154C108.973 23.0154 109.783 22.791 110.485 22.3422C111.188 21.8935 111.734 21.2788 112.124 20.4984C112.534 19.6984 112.739 18.7911 112.739 17.7765C112.739 16.7814 112.534 15.8936 112.124 15.1132C111.734 14.3327 111.188 13.7181 110.485 13.2693C109.783 12.8206 108.973 12.5962 108.056 12.5962C107.159 12.5962 106.359 12.8206 105.656 13.2693C104.973 13.7181 104.427 14.3327 104.017 15.1132C103.627 15.8936 103.432 16.7814 103.432 17.7765C103.432 18.7911 103.627 19.6984 104.017 20.4984C104.427 21.2788 104.973 21.8935 105.656 22.3422C106.359 22.791 107.159 23.0154 108.056 23.0154Z" fill="#172C3D"/>
<path d="M119.875 25.5031V10.1377H122.919V14.9668L122.626 13.7961C122.841 13.0547 123.202 12.3815 123.709 11.7767C124.236 11.1718 124.831 10.6938 125.494 10.3426C126.177 9.99137 126.88 9.81577 127.601 9.81577C127.933 9.81577 128.245 9.84503 128.538 9.90357C128.85 9.9621 129.094 10.0304 129.27 10.1084L128.479 13.3864C128.245 13.2888 127.982 13.2108 127.689 13.1523C127.416 13.0742 127.143 13.0352 126.87 13.0352C126.343 13.0352 125.836 13.1425 125.348 13.3571C124.88 13.5522 124.46 13.8352 124.089 14.2059C123.738 14.5571 123.455 14.9766 123.241 15.4644C123.026 15.9327 122.919 16.4497 122.919 17.0156V25.5031H119.875Z" fill="#172C3D"/>
<path d="M137.431 25.7958C136.026 25.7958 134.768 25.4543 133.656 24.7714C132.563 24.069 131.695 23.1227 131.051 21.9325C130.407 20.7228 130.085 19.3472 130.085 17.8058C130.085 16.2644 130.397 14.8985 131.022 13.7083C131.665 12.4986 132.534 11.5523 133.626 10.8694C134.719 10.167 135.958 9.81577 137.343 9.81577C138.104 9.81577 138.836 9.94259 139.538 10.1962C140.26 10.4304 140.904 10.7621 141.47 11.1913C142.036 11.6011 142.475 12.0596 142.787 12.5669C143.119 13.0547 143.285 13.5522 143.285 14.0595L142.407 14.1181V3.84521H145.421V25.5031H142.407V21.8447H142.992C142.992 22.313 142.836 22.7812 142.524 23.2495C142.212 23.6983 141.792 24.1178 141.265 24.508C140.758 24.8982 140.163 25.2104 139.48 25.4446C138.817 25.6787 138.134 25.7958 137.431 25.7958ZM137.841 23.191C138.758 23.191 139.568 22.9568 140.27 22.4886C140.973 22.0203 141.519 21.3862 141.909 20.5862C142.319 19.7667 142.524 18.8399 142.524 17.8058C142.524 16.7717 142.319 15.8546 141.909 15.0546C141.519 14.2351 140.973 13.5913 140.27 13.123C139.568 12.6547 138.758 12.4206 137.841 12.4206C136.924 12.4206 136.114 12.6547 135.412 13.123C134.709 13.5913 134.153 14.2351 133.743 15.0546C133.353 15.8546 133.158 16.7717 133.158 17.8058C133.158 18.8399 133.353 19.7667 133.743 20.5862C134.153 21.3862 134.709 22.0203 135.412 22.4886C136.114 22.9568 136.924 23.191 137.841 23.191Z" fill="#172C3D"/>
</svg>
